<mxfile host="app.diagrams.net" modified="2023-02-24T17:38:57.340Z" agent="5.0 (Windows NT 10.0; Win64; x64) AppleWebKit/537.36 (KHTML, like Gecko) Chrome/110.0.0.0 Safari/537.36 Edg/110.0.1587.50" etag="oHtFOy_23ZSi06NC8DYK" version="20.8.23" type="github">
  <diagram name="Page-1" id="QkbZYkpu7mMoow-RRnQk">
    <mxGraphModel dx="2095" dy="1883" grid="1" gridSize="10" guides="1" tooltips="1" connect="1" arrows="1" fold="1" page="1" pageScale="1" pageWidth="850" pageHeight="1100" math="0" shadow="0">
      <root>
        <mxCell id="0" />
        <mxCell id="1" parent="0" />
        <mxCell id="5gHGnYhuXdhxCVV7DcS6-2" value="Actor" style="shape=umlActor;verticalLabelPosition=bottom;verticalAlign=top;html=1;outlineConnect=0;" vertex="1" parent="1">
          <mxGeometry x="20" y="90" width="30" height="60" as="geometry" />
        </mxCell>
        <mxCell id="5gHGnYhuXdhxCVV7DcS6-4" value="" style="whiteSpace=wrap;html=1;aspect=fixed;" vertex="1" parent="1">
          <mxGeometry x="-100" y="-30" width="770" height="770" as="geometry" />
        </mxCell>
        <mxCell id="5gHGnYhuXdhxCVV7DcS6-6" value="&lt;h1&gt;Customer&lt;/h1&gt;" style="shape=umlActor;verticalLabelPosition=bottom;verticalAlign=top;html=1;outlineConnect=0;" vertex="1" parent="1">
          <mxGeometry x="810" y="50" width="80" height="120" as="geometry" />
        </mxCell>
        <mxCell id="5gHGnYhuXdhxCVV7DcS6-7" value="&lt;h1&gt;Super User&lt;/h1&gt;" style="shape=umlActor;verticalLabelPosition=bottom;verticalAlign=top;html=1;outlineConnect=0;" vertex="1" parent="1">
          <mxGeometry x="-320" y="465" width="80" height="130" as="geometry" />
        </mxCell>
        <mxCell id="5gHGnYhuXdhxCVV7DcS6-11" value="&lt;font style=&quot;font-size: 16px;&quot;&gt;&lt;b&gt;Manage Users And Full Application&lt;/b&gt;&lt;/font&gt;" style="rounded=1;whiteSpace=wrap;html=1;" vertex="1" parent="1">
          <mxGeometry x="-60" width="320" height="60" as="geometry" />
        </mxCell>
        <mxCell id="5gHGnYhuXdhxCVV7DcS6-12" value="&lt;font size=&quot;1&quot; style=&quot;&quot;&gt;&lt;b style=&quot;font-size: 16px;&quot;&gt;Manage Cars&lt;/b&gt;&lt;/font&gt;" style="rounded=1;whiteSpace=wrap;html=1;" vertex="1" parent="1">
          <mxGeometry x="-60" y="70" width="320" height="50" as="geometry" />
        </mxCell>
        <mxCell id="5gHGnYhuXdhxCVV7DcS6-13" value="&lt;font style=&quot;font-size: 17px;&quot;&gt;&lt;b&gt;Manage Pooling&lt;/b&gt;&lt;/font&gt;" style="rounded=1;whiteSpace=wrap;html=1;" vertex="1" parent="1">
          <mxGeometry x="-60" y="140" width="320" height="50" as="geometry" />
        </mxCell>
        <mxCell id="5gHGnYhuXdhxCVV7DcS6-14" value="&lt;span style=&quot;font-size: 16px;&quot;&gt;&lt;b&gt;Search Pooling&lt;/b&gt;&lt;/span&gt;" style="rounded=1;whiteSpace=wrap;html=1;" vertex="1" parent="1">
          <mxGeometry x="280" width="340" height="60" as="geometry" />
        </mxCell>
        <mxCell id="5gHGnYhuXdhxCVV7DcS6-15" value="&lt;span style=&quot;font-size: 16px;&quot;&gt;&lt;b&gt;Request Pooling&lt;/b&gt;&lt;/span&gt;" style="rounded=1;whiteSpace=wrap;html=1;" vertex="1" parent="1">
          <mxGeometry x="280" y="70" width="340" height="50" as="geometry" />
        </mxCell>
        <mxCell id="5gHGnYhuXdhxCVV7DcS6-16" value="&lt;span style=&quot;font-size: 16px;&quot;&gt;&lt;b&gt;Make payment&lt;/b&gt;&lt;/span&gt;" style="rounded=1;whiteSpace=wrap;html=1;" vertex="1" parent="1">
          <mxGeometry x="280" y="140" width="340" height="50" as="geometry" />
        </mxCell>
        <mxCell id="5gHGnYhuXdhxCVV7DcS6-17" value="&lt;b style=&quot;&quot;&gt;&lt;font style=&quot;font-size: 21px;&quot;&gt;Login And Logout From System&lt;/font&gt;&lt;/b&gt;" style="rounded=1;whiteSpace=wrap;html=1;" vertex="1" parent="1">
          <mxGeometry x="75" y="220" width="420" height="60" as="geometry" />
        </mxCell>
        <mxCell id="5gHGnYhuXdhxCVV7DcS6-18" value="&lt;b style=&quot;&quot;&gt;&lt;font style=&quot;font-size: 21px;&quot;&gt;Update My Profile&lt;/font&gt;&lt;/b&gt;" style="rounded=1;whiteSpace=wrap;html=1;" vertex="1" parent="1">
          <mxGeometry x="70" y="310" width="420" height="60" as="geometry" />
        </mxCell>
        <mxCell id="5gHGnYhuXdhxCVV7DcS6-19" value="&lt;b style=&quot;&quot;&gt;&lt;font style=&quot;font-size: 21px;&quot;&gt;Change Account Password&lt;/font&gt;&lt;/b&gt;" style="rounded=1;whiteSpace=wrap;html=1;" vertex="1" parent="1">
          <mxGeometry x="70" y="390" width="420" height="60" as="geometry" />
        </mxCell>
        <mxCell id="5gHGnYhuXdhxCVV7DcS6-20" value="&lt;span style=&quot;font-size: 16px;&quot;&gt;&lt;b&gt;Manage Places&lt;/b&gt;&lt;/span&gt;" style="rounded=1;whiteSpace=wrap;html=1;" vertex="1" parent="1">
          <mxGeometry x="300" y="650" width="340" height="60" as="geometry" />
        </mxCell>
        <mxCell id="5gHGnYhuXdhxCVV7DcS6-21" value="&lt;span style=&quot;font-size: 16px;&quot;&gt;&lt;b&gt;View request&lt;/b&gt;&lt;/span&gt;" style="rounded=1;whiteSpace=wrap;html=1;" vertex="1" parent="1">
          <mxGeometry x="300" y="570" width="340" height="60" as="geometry" />
        </mxCell>
        <mxCell id="5gHGnYhuXdhxCVV7DcS6-22" value="&lt;span style=&quot;font-size: 16px;&quot;&gt;&lt;b&gt;Creating&lt;/b&gt; &lt;b&gt;Pooling&lt;/b&gt;&lt;/span&gt;" style="rounded=1;whiteSpace=wrap;html=1;" vertex="1" parent="1">
          <mxGeometry x="300" y="490" width="340" height="60" as="geometry" />
        </mxCell>
        <mxCell id="5gHGnYhuXdhxCVV7DcS6-23" value="&lt;span style=&quot;font-size: 16px;&quot;&gt;&lt;b&gt;Manage&lt;/b&gt; &lt;b&gt;Drivers&lt;/b&gt;&lt;/span&gt;" style="rounded=1;whiteSpace=wrap;html=1;" vertex="1" parent="1">
          <mxGeometry x="-60" y="650" width="340" height="60" as="geometry" />
        </mxCell>
        <mxCell id="5gHGnYhuXdhxCVV7DcS6-24" value="&lt;span style=&quot;font-size: 16px;&quot;&gt;&lt;b&gt;Manage Car Routes&lt;/b&gt;&lt;/span&gt;" style="rounded=1;whiteSpace=wrap;html=1;" vertex="1" parent="1">
          <mxGeometry x="-60" y="570" width="340" height="60" as="geometry" />
        </mxCell>
        <mxCell id="5gHGnYhuXdhxCVV7DcS6-25" value="&lt;span style=&quot;font-size: 16px;&quot;&gt;&lt;b&gt;Manage&lt;/b&gt;&amp;nbsp;&lt;b&gt;passenger&lt;/b&gt;&lt;/span&gt;" style="rounded=1;whiteSpace=wrap;html=1;" vertex="1" parent="1">
          <mxGeometry x="-60" y="490" width="340" height="60" as="geometry" />
        </mxCell>
        <mxCell id="5gHGnYhuXdhxCVV7DcS6-35" value="" style="endArrow=none;html=1;rounded=0;fontSize=16;entryX=0;entryY=0.5;entryDx=0;entryDy=0;" edge="1" parent="1" target="5gHGnYhuXdhxCVV7DcS6-11">
          <mxGeometry width="50" height="50" relative="1" as="geometry">
            <mxPoint x="-230" y="110" as="sourcePoint" />
            <mxPoint x="-140" y="60" as="targetPoint" />
          </mxGeometry>
        </mxCell>
        <mxCell id="5gHGnYhuXdhxCVV7DcS6-36" value="" style="endArrow=none;html=1;rounded=0;fontSize=16;" edge="1" parent="1">
          <mxGeometry width="50" height="50" relative="1" as="geometry">
            <mxPoint x="-240" y="110" as="sourcePoint" />
            <mxPoint x="-200" y="530" as="targetPoint" />
            <Array as="points">
              <mxPoint x="-60" y="90" />
            </Array>
          </mxGeometry>
        </mxCell>
        <mxCell id="5gHGnYhuXdhxCVV7DcS6-37" value="" style="endArrow=none;html=1;rounded=0;fontSize=16;entryX=0;entryY=0.5;entryDx=0;entryDy=0;" edge="1" parent="1" target="5gHGnYhuXdhxCVV7DcS6-13">
          <mxGeometry width="50" height="50" relative="1" as="geometry">
            <mxPoint x="-240" y="110" as="sourcePoint" />
            <mxPoint x="-140" y="60" as="targetPoint" />
          </mxGeometry>
        </mxCell>
        <mxCell id="5gHGnYhuXdhxCVV7DcS6-38" value="" style="endArrow=none;html=1;rounded=0;fontSize=21;" edge="1" parent="1">
          <mxGeometry width="50" height="50" relative="1" as="geometry">
            <mxPoint x="-225" y="110" as="sourcePoint" />
            <mxPoint x="-205" y="540" as="targetPoint" />
            <Array as="points">
              <mxPoint x="75" y="260" />
            </Array>
          </mxGeometry>
        </mxCell>
        <mxCell id="5gHGnYhuXdhxCVV7DcS6-39" value="" style="endArrow=none;html=1;rounded=0;fontSize=21;" edge="1" parent="1">
          <mxGeometry width="50" height="50" relative="1" as="geometry">
            <mxPoint x="-240" y="110" as="sourcePoint" />
            <mxPoint x="-210" y="540" as="targetPoint" />
            <Array as="points">
              <mxPoint x="70" y="340" />
            </Array>
          </mxGeometry>
        </mxCell>
        <mxCell id="5gHGnYhuXdhxCVV7DcS6-40" value="" style="endArrow=none;html=1;rounded=0;fontSize=21;entryX=0;entryY=0.5;entryDx=0;entryDy=0;" edge="1" parent="1" target="5gHGnYhuXdhxCVV7DcS6-19">
          <mxGeometry width="50" height="50" relative="1" as="geometry">
            <mxPoint x="-240" y="110" as="sourcePoint" />
            <mxPoint x="-170" y="300" as="targetPoint" />
          </mxGeometry>
        </mxCell>
        <mxCell id="5gHGnYhuXdhxCVV7DcS6-41" value="" style="endArrow=none;html=1;rounded=0;fontSize=21;" edge="1" parent="1">
          <mxGeometry width="50" height="50" relative="1" as="geometry">
            <mxPoint x="-200" y="160" as="sourcePoint" />
            <mxPoint x="-210" y="560" as="targetPoint" />
            <Array as="points">
              <mxPoint x="-60" y="520" />
            </Array>
          </mxGeometry>
        </mxCell>
        <mxCell id="5gHGnYhuXdhxCVV7DcS6-42" value="" style="endArrow=none;html=1;rounded=0;fontSize=21;" edge="1" parent="1">
          <mxGeometry width="50" height="50" relative="1" as="geometry">
            <mxPoint x="-200" y="170" as="sourcePoint" />
            <mxPoint x="-210" y="560" as="targetPoint" />
            <Array as="points">
              <mxPoint x="-180" y="220" />
              <mxPoint x="-60" y="600" />
            </Array>
          </mxGeometry>
        </mxCell>
        <mxCell id="5gHGnYhuXdhxCVV7DcS6-44" value="" style="endArrow=none;html=1;rounded=0;fontSize=21;" edge="1" parent="1">
          <mxGeometry width="50" height="50" relative="1" as="geometry">
            <mxPoint x="-200" y="160" as="sourcePoint" />
            <mxPoint x="-210" y="560" as="targetPoint" />
            <Array as="points">
              <mxPoint x="-200" y="180" />
              <mxPoint x="-60" y="680" />
            </Array>
          </mxGeometry>
        </mxCell>
        <mxCell id="5gHGnYhuXdhxCVV7DcS6-47" value="&lt;h1&gt;Super Admin&lt;/h1&gt;" style="shape=umlActor;verticalLabelPosition=bottom;verticalAlign=top;html=1;outlineConnect=0;" vertex="1" parent="1">
          <mxGeometry x="-310" y="60" width="80" height="120" as="geometry" />
        </mxCell>
        <mxCell id="5gHGnYhuXdhxCVV7DcS6-48" value="&lt;h1&gt;User&lt;/h1&gt;" style="shape=umlActor;verticalLabelPosition=bottom;verticalAlign=top;html=1;outlineConnect=0;" vertex="1" parent="1">
          <mxGeometry x="810" y="460" width="80" height="120" as="geometry" />
        </mxCell>
        <mxCell id="5gHGnYhuXdhxCVV7DcS6-50" value="" style="endArrow=none;html=1;rounded=0;fontSize=13;exitX=1;exitY=0.5;exitDx=0;exitDy=0;" edge="1" parent="1" source="5gHGnYhuXdhxCVV7DcS6-14">
          <mxGeometry width="50" height="50" relative="1" as="geometry">
            <mxPoint x="730" y="100" as="sourcePoint" />
            <mxPoint x="790" y="80" as="targetPoint" />
          </mxGeometry>
        </mxCell>
        <mxCell id="5gHGnYhuXdhxCVV7DcS6-51" value="" style="endArrow=none;html=1;rounded=0;fontSize=13;exitX=1;exitY=0.5;exitDx=0;exitDy=0;" edge="1" parent="1" source="5gHGnYhuXdhxCVV7DcS6-15">
          <mxGeometry width="50" height="50" relative="1" as="geometry">
            <mxPoint x="700" y="270" as="sourcePoint" />
            <mxPoint x="790" y="110" as="targetPoint" />
            <Array as="points" />
          </mxGeometry>
        </mxCell>
        <mxCell id="5gHGnYhuXdhxCVV7DcS6-52" value="" style="endArrow=none;html=1;rounded=0;fontSize=13;exitX=1;exitY=0.5;exitDx=0;exitDy=0;" edge="1" parent="1" source="5gHGnYhuXdhxCVV7DcS6-16">
          <mxGeometry width="50" height="50" relative="1" as="geometry">
            <mxPoint x="710" y="410" as="sourcePoint" />
            <mxPoint x="790" y="140" as="targetPoint" />
            <Array as="points" />
          </mxGeometry>
        </mxCell>
        <mxCell id="5gHGnYhuXdhxCVV7DcS6-53" value="" style="endArrow=none;html=1;rounded=0;fontSize=13;" edge="1" parent="1">
          <mxGeometry width="50" height="50" relative="1" as="geometry">
            <mxPoint x="790" y="160" as="sourcePoint" />
            <mxPoint x="790" y="500" as="targetPoint" />
            <Array as="points">
              <mxPoint x="490" y="250" />
            </Array>
          </mxGeometry>
        </mxCell>
        <mxCell id="5gHGnYhuXdhxCVV7DcS6-54" value="" style="endArrow=none;html=1;rounded=0;fontSize=13;" edge="1" parent="1">
          <mxGeometry width="50" height="50" relative="1" as="geometry">
            <mxPoint x="790" y="520" as="sourcePoint" />
            <mxPoint x="790" y="170" as="targetPoint" />
            <Array as="points">
              <mxPoint x="490" y="340" />
            </Array>
          </mxGeometry>
        </mxCell>
        <mxCell id="5gHGnYhuXdhxCVV7DcS6-55" value="" style="endArrow=none;html=1;rounded=0;fontSize=13;" edge="1" parent="1">
          <mxGeometry width="50" height="50" relative="1" as="geometry">
            <mxPoint x="790" y="530" as="sourcePoint" />
            <mxPoint x="790" y="180" as="targetPoint" />
            <Array as="points">
              <mxPoint x="490" y="420" />
            </Array>
          </mxGeometry>
        </mxCell>
        <mxCell id="5gHGnYhuXdhxCVV7DcS6-58" value="" style="endArrow=none;html=1;rounded=0;fontSize=13;exitX=1;exitY=0.5;exitDx=0;exitDy=0;" edge="1" parent="1" source="5gHGnYhuXdhxCVV7DcS6-22">
          <mxGeometry width="50" height="50" relative="1" as="geometry">
            <mxPoint x="720" y="610" as="sourcePoint" />
            <mxPoint x="780" y="540" as="targetPoint" />
          </mxGeometry>
        </mxCell>
        <mxCell id="5gHGnYhuXdhxCVV7DcS6-59" value="" style="endArrow=none;html=1;rounded=0;fontSize=13;exitX=1;exitY=0.5;exitDx=0;exitDy=0;" edge="1" parent="1" source="5gHGnYhuXdhxCVV7DcS6-21">
          <mxGeometry width="50" height="50" relative="1" as="geometry">
            <mxPoint x="710" y="650" as="sourcePoint" />
            <mxPoint x="780" y="550" as="targetPoint" />
          </mxGeometry>
        </mxCell>
        <mxCell id="5gHGnYhuXdhxCVV7DcS6-60" value="" style="endArrow=none;html=1;rounded=0;fontSize=13;exitX=1;exitY=0.5;exitDx=0;exitDy=0;" edge="1" parent="1" source="5gHGnYhuXdhxCVV7DcS6-20">
          <mxGeometry width="50" height="50" relative="1" as="geometry">
            <mxPoint x="740" y="760" as="sourcePoint" />
            <mxPoint x="780" y="560" as="targetPoint" />
          </mxGeometry>
        </mxCell>
      </root>
    </mxGraphModel>
  </diagram>
</mxfile>
